# xmcd
#
# Track frame offsets: 
#        150
#        10920
#        22849
#        38779
#        50827
#        61048
#        72034
#        81358
#        92179
#        107461
#        119233
#        129413
#        138777
#        150442
#        162544
#        172211
#        182284
#        193597
#        209880
#        220059
#        231466
#        244153
#        255409
#
# Disc length: 3538 seconds
#
# Revision: 4
# Processed by: cddbd v1.5.2PL0 Copyright (c) Steve Scherf et al.
# Submitted via: ExactAudioCopyFreeDBPlugin 1.0
#
DISCID=440dd017
DTITLE=Various Artist - The Heeey Baby Days of Beach Music [companion
DTITLE=CDs to book]
DYEAR=2008
DGENRE=Rhythm and Blues
TTITLE0=Soul, Inc. - What Goes Up Must Come Down
TTITLE1=The Footnotes - The Entertainer
TTITLE2=The Mystics - The Monkey Time
TTITLE3=Singing Swinging Counts - Along the Way
TTITLE4=The Catalinas - You Haven't the Right
TTITLE5=The Embers - Watch Out Girl
TTITLE6=Bob Collins and his Fab Five - Inventory on Heartaches
TTITLE7=The Monzas - Instant Love
TTITLE8=The Avengers - More Today Than Yesterday
TTITLE9=The Men of Distinction - Together
TTITLE10=Buddy Skipper and The Jetty Jumpers - No More Doggin'
TTITLE11=Johnny Cobb and The Attractions - Forget Him
TTITLE12=The Tempests - Love Have Mercy
TTITLE13=The Tropics - Hey You Little Girl
TTITLE14=Bob Meyer - My Girl Stormy
TTITLE15=The Spontanes - Share My Name
TTITLE16=Calvin Lindsay and The Hysterics - Ain't No Big Thing
TTITLE17=The Fantastic Shakers - The Biggest mistake
TTITLE18=Bill Deal and The Rhondells - I've Been Hurt
TTITLE19=Gene Barbour and The Cavaliers - I Need You
TTITLE20=Willie Tee Walker and The Magnificents - 39-21-46
TTITLE21=The Soul Set - Will You Ever Learn
TTITLE22=The Impacts - I Love That Girl
EXTD=
EXTT0=
EXTT1=
EXTT2=
EXTT3=
EXTT4=
EXTT5=
EXTT6=
EXTT7=
EXTT8=
EXTT9=
EXTT10=
EXTT11=
EXTT12=
EXTT13=
EXTT14=
EXTT15=
EXTT16=
EXTT17=
EXTT18=
EXTT19=
EXTT20=
EXTT21=
EXTT22=
PLAYORDER=
